<svg width="18" height="16" viewBox="0 0 18 16" fill="none" xmlns="http://www.w3.org/2000/svg">
<path d="M7.14 4.16734L2.82 14.3273C2.72667 14.5807 2.58 14.7807 2.38 14.9273C2.19333 15.0607 1.98667 15.1273 1.76 15.1273C1.4 15.1273 1.13333 15.0273 0.96 14.8273C0.786667 14.6273 0.7 14.3807 0.7 14.0873C0.7 13.9673 0.72 13.8407 0.76 13.7073L5.74 1.74734C5.84667 1.48068 6.00667 1.27401 6.22 1.12734C6.44667 0.980676 6.68667 0.920676 6.94 0.947343C7.18 0.947343 7.4 1.02068 7.6 1.16734C7.81333 1.30068 7.96667 1.49401 8.06 1.74734L12.98 13.4673C13.0467 13.6407 13.08 13.8007 13.08 13.9473C13.08 14.3073 12.96 14.594 12.72 14.8073C12.4933 15.0207 12.24 15.1273 11.96 15.1273C11.72 15.1273 11.5 15.054 11.3 14.9073C11.1133 14.7607 10.9667 14.5607 10.86 14.3073L6.56 4.28734L7.14 4.16734ZM3.44 11.8873L4.54 9.58734H9.94L10.32 11.8873H3.44ZM17.4734 13.8073C17.4734 14.154 17.3468 14.4473 17.0934 14.6873C16.8401 14.914 16.5468 15.0273 16.2134 15.0273C15.8401 15.0273 15.5401 14.914 15.3134 14.6873C15.0868 14.4473 14.9734 14.154 14.9734 13.8073V2.24734C14.9734 1.90068 15.0934 1.61401 15.3334 1.38734C15.5734 1.14734 15.8801 1.02734 16.2534 1.02734C16.5734 1.02734 16.8534 1.14734 17.0934 1.38734C17.3468 1.61401 17.4734 1.90068 17.4734 2.24734V13.8073Z" fill="#040940"/>
</svg>
